<?xml version="1.0" encoding="UTF-8"?>
<svg xmlns="http://www.w3.org/2000/svg" viewBox="-391.8 -105.0 991.4 590.0" preserveAspectRatio="xMidYMid meet">
  <title>Three Kingdoms 16 States – Isometric v2 (terrain plates)</title>
  <desc>等角投影 16 州，厚切片土壤層 + 山/平原/水鄉地形 + 河流。
  程序生成（純 SVG），可作為手繪 tile 素材的占位骨架。</desc>
  <defs>
    <radialGradient id="fog" cx="50%" cy="50%" r="70%">
      <stop offset="0%" stop-color="#3a3024"/>
      <stop offset="100%" stop-color="#15100a"/>
    </radialGradient>
    <pattern id="grassDots" width="14" height="14" patternUnits="userSpaceOnUse">
      <rect width="14" height="14" fill="transparent"/>
      <circle cx="3" cy="4" r="1" fill="#7a8c4a" opacity="0.5"/>
      <circle cx="9" cy="9" r="1" fill="#7a8c4a" opacity="0.5"/>
      <circle cx="11" cy="2" r="0.7" fill="#7a8c4a" opacity="0.4"/>
    </pattern>
  </defs>
  <rect x="-391.8" y="-105.0" width="991.4" height="590.0" fill="url(#fog)"/>
  <g id="plates" stroke="#1a140d" stroke-width="1.2" stroke-linejoin="round">
    <g id="you" data-name="幽州" data-terrain="plain">
      <path d="M311.8,205.0 L415.7,250.0 L415.7,256.0 L311.8,211.0 Z" fill="#56603d"/>
      <path d="M311.8,211.0 L415.7,256.0 L415.7,263.0 L311.8,218.0 Z" fill="#5a4a32"/>
      <path d="M311.8,218.0 L415.7,263.0 L415.7,270.0 L311.8,225.0 Z" fill="#3a2e1c"/>
      <path d="M415.7,250.0 L519.6,205.0 L519.6,211.0 L415.7,256.0 Z" fill="#495133"/>
      <path d="M415.7,256.0 L519.6,211.0 L519.6,218.0 L415.7,263.0 Z" fill="#51422d"/>
      <path d="M415.7,263.0 L519.6,218.0 L519.6,225.0 L415.7,270.0 Z" fill="#342919"/>
      <path d="M415.7,160.0 L519.6,205.0 L415.7,250.0 L311.8,205.0 Z" fill="#9eb070"/>
      <path d="M415.7,160.0 L519.6,205.0 L415.7,250.0 L311.8,205.0 Z" fill="url(#grassDots)" opacity="0.7"/>
    </g>
    <g id="ji" data-name="冀州" data-terrain="plain">
      <path d="M207.8,160.0 L311.8,205.0 L311.8,211.0 L207.8,166.0 Z" fill="#56603d"/>
      <path d="M207.8,166.0 L311.8,211.0 L311.8,218.0 L207.8,173.0 Z" fill="#5a4a32"/>
      <path d="M207.8,173.0 L311.8,218.0 L311.8,225.0 L207.8,180.0 Z" fill="#3a2e1c"/>
      <path d="M311.8,205.0 L415.7,160.0 L415.7,166.0 L311.8,211.0 Z" fill="#495133"/>
      <path d="M311.8,211.0 L415.7,166.0 L415.7,173.0 L311.8,218.0 Z" fill="#51422d"/>
      <path d="M311.8,218.0 L415.7,173.0 L415.7,180.0 L311.8,225.0 Z" fill="#342919"/>
      <path d="M311.8,115.0 L415.7,160.0 L311.8,205.0 L207.8,160.0 Z" fill="#9eb070"/>
      <path d="M311.8,115.0 L415.7,160.0 L311.8,205.0 L207.8,160.0 Z" fill="url(#grassDots)" opacity="0.7"/>
    </g>
    <g id="bing" data-name="并州" data-terrain="plat">
      <path d="M103.9,85.0 L207.8,130.0 L207.8,145.0 L103.9,100.0 Z" fill="#544b37"/>
      <path d="M103.9,100.0 L207.8,145.0 L207.8,162.5 L103.9,117.5 Z" fill="#5a4a32"/>
      <path d="M103.9,117.5 L207.8,162.5 L207.8,180.0 L103.9,135.0 Z" fill="#3a2e1c"/>
      <path d="M207.8,130.0 L311.8,85.0 L311.8,100.0 L207.8,145.0 Z" fill="#473f2e"/>
      <path d="M207.8,145.0 L311.8,100.0 L311.8,117.5 L207.8,162.5 Z" fill="#51422d"/>
      <path d="M207.8,162.5 L311.8,117.5 L311.8,135.0 L207.8,180.0 Z" fill="#342919"/>
      <path d="M207.8,40.0 L311.8,85.0 L207.8,130.0 L103.9,85.0 Z" fill="#9a8a64"/>
      <path d="M207.8,50.0 L235.8,97.0 L179.8,97.0 Z" fill="#888070" stroke="#3a2e1c"/>
      <path d="M207.8,50.0 L221.8,71.0 L207.8,91.0 Z" fill="#a89c84" stroke="none"/>
    </g>
    <g id="qing" data-name="青州" data-terrain="plain">
      <path d="M207.8,250.0 L311.8,295.0 L311.8,301.0 L207.8,256.0 Z" fill="#56603d"/>
      <path d="M207.8,256.0 L311.8,301.0 L311.8,308.0 L207.8,263.0 Z" fill="#5a4a32"/>
      <path d="M207.8,263.0 L311.8,308.0 L311.8,315.0 L207.8,270.0 Z" fill="#3a2e1c"/>
      <path d="M311.8,295.0 L415.7,250.0 L415.7,256.0 L311.8,301.0 Z" fill="#495133"/>
      <path d="M311.8,301.0 L415.7,256.0 L415.7,263.0 L311.8,308.0 Z" fill="#51422d"/>
      <path d="M311.8,308.0 L415.7,263.0 L415.7,270.0 L311.8,315.0 Z" fill="#342919"/>
      <path d="M311.8,205.0 L415.7,250.0 L311.8,295.0 L207.8,250.0 Z" fill="#9eb070"/>
      <path d="M311.8,205.0 L415.7,250.0 L311.8,295.0 L207.8,250.0 Z" fill="url(#grassDots)" opacity="0.7"/>
    </g>
    <g id="yan" data-name="兗州" data-terrain="plain">
      <path d="M103.9,205.0 L207.8,250.0 L207.8,256.0 L103.9,211.0 Z" fill="#56603d"/>
      <path d="M103.9,211.0 L207.8,256.0 L207.8,263.0 L103.9,218.0 Z" fill="#5a4a32"/>
      <path d="M103.9,218.0 L207.8,263.0 L207.8,270.0 L103.9,225.0 Z" fill="#3a2e1c"/>
      <path d="M207.8,250.0 L311.8,205.0 L311.8,211.0 L207.8,256.0 Z" fill="#495133"/>
      <path d="M207.8,256.0 L311.8,211.0 L311.8,218.0 L207.8,263.0 Z" fill="#51422d"/>
      <path d="M207.8,263.0 L311.8,218.0 L311.8,225.0 L207.8,270.0 Z" fill="#342919"/>
      <path d="M207.8,160.0 L311.8,205.0 L207.8,250.0 L103.9,205.0 Z" fill="#9eb070"/>
      <path d="M207.8,160.0 L311.8,205.0 L207.8,250.0 L103.9,205.0 Z" fill="url(#grassDots)" opacity="0.7"/>
    </g>
    <g id="sili" data-name="司隸" data-terrain="hill">
      <path d="M0.0,145.0 L103.9,190.0 L103.9,200.5 L0.0,155.5 Z" fill="#5c5340"/>
      <path d="M0.0,155.5 L103.9,200.5 L103.9,212.8 L0.0,167.8 Z" fill="#5a4a32"/>
      <path d="M0.0,167.8 L103.9,212.8 L103.9,225.0 L0.0,180.0 Z" fill="#3a2e1c"/>
      <path d="M103.9,190.0 L207.8,145.0 L207.8,155.5 L103.9,200.5 Z" fill="#4e4636"/>
      <path d="M103.9,200.5 L207.8,155.5 L207.8,167.8 L103.9,212.8 Z" fill="#51422d"/>
      <path d="M103.9,212.8 L207.8,167.8 L207.8,180.0 L103.9,225.0 Z" fill="#342919"/>
      <path d="M103.9,100.0 L207.8,145.0 L103.9,190.0 L0.0,145.0 Z" fill="#a89876"/>
      <path d="M103.9,100.0 L207.8,145.0 L103.9,190.0 L0.0,145.0 Z" fill="url(#grassDots)" opacity="0.7"/>
    </g>
    <g id="yong" data-name="雍州" data-terrain="hill">
      <path d="M-103.9,100.0 L0.0,145.0 L0.0,155.5 L-103.9,110.5 Z" fill="#5c5340"/>
      <path d="M-103.9,110.5 L0.0,155.5 L0.0,167.8 L-103.9,122.8 Z" fill="#5a4a32"/>
      <path d="M-103.9,122.8 L0.0,167.8 L0.0,180.0 L-103.9,135.0 Z" fill="#3a2e1c"/>
      <path d="M0.0,145.0 L103.9,100.0 L103.9,110.5 L0.0,155.5 Z" fill="#4e4636"/>
      <path d="M0.0,155.5 L103.9,110.5 L103.9,122.8 L0.0,167.8 Z" fill="#51422d"/>
      <path d="M0.0,167.8 L103.9,122.8 L103.9,135.0 L0.0,180.0 Z" fill="#342919"/>
      <path d="M0.0,55.0 L103.9,100.0 L0.0,145.0 L-103.9,100.0 Z" fill="#a89876"/>
      <path d="M0.0,55.0 L103.9,100.0 L0.0,145.0 L-103.9,100.0 Z" fill="url(#grassDots)" opacity="0.7"/>
    </g>
    <g id="liang" data-name="涼州" data-terrain="mtn">
      <path d="M-207.8,20.0 L-103.9,65.0 L-103.9,86.0 L-207.8,41.0 Z" fill="#4b4332"/>
      <path d="M-207.8,41.0 L-103.9,86.0 L-103.9,110.5 L-207.8,65.5 Z" fill="#5a4a32"/>
      <path d="M-207.8,65.5 L-103.9,110.5 L-103.9,135.0 L-207.8,90.0 Z" fill="#3a2e1c"/>
      <path d="M-103.9,65.0 L0.0,20.0 L0.0,41.0 L-103.9,86.0 Z" fill="#3f382a"/>
      <path d="M-103.9,86.0 L0.0,41.0 L0.0,65.5 L-103.9,110.5 Z" fill="#51422d"/>
      <path d="M-103.9,110.5 L0.0,65.5 L0.0,90.0 L-103.9,135.0 Z" fill="#342919"/>
      <path d="M-103.9,-25.0 L0.0,20.0 L-103.9,65.0 L-207.8,20.0 Z" fill="#8a7a5c"/>
      <path d="M-103.9,-40.0 L-75.9,32.0 L-131.9,32.0 Z" fill="#888070" stroke="#3a2e1c"/>
      <path d="M-103.9,-40.0 L-89.9,-4.0 L-103.9,26.0 Z" fill="#a89c84" stroke="none"/>
      <path d="M-133.9,-13.0 L-115.9,34.0 L-153.9,34.0 Z" fill="#766a58" stroke="#3a2e1c"/>
    </g>
    <g id="xu" data-name="徐州" data-terrain="plain">
      <path d="M103.9,295.0 L207.8,340.0 L207.8,346.0 L103.9,301.0 Z" fill="#56603d"/>
      <path d="M103.9,301.0 L207.8,346.0 L207.8,353.0 L103.9,308.0 Z" fill="#5a4a32"/>
      <path d="M103.9,308.0 L207.8,353.0 L207.8,360.0 L103.9,315.0 Z" fill="#3a2e1c"/>
      <path d="M207.8,340.0 L311.8,295.0 L311.8,301.0 L207.8,346.0 Z" fill="#495133"/>
      <path d="M207.8,346.0 L311.8,301.0 L311.8,308.0 L207.8,353.0 Z" fill="#51422d"/>
      <path d="M207.8,353.0 L311.8,308.0 L311.8,315.0 L207.8,360.0 Z" fill="#342919"/>
      <path d="M207.8,250.0 L311.8,295.0 L207.8,340.0 L103.9,295.0 Z" fill="#9eb070"/>
      <path d="M207.8,250.0 L311.8,295.0 L207.8,340.0 L103.9,295.0 Z" fill="url(#grassDots)" opacity="0.7"/>
    </g>
    <g id="yu" data-name="豫州" data-terrain="plain">
      <path d="M0.0,250.0 L103.9,295.0 L103.9,301.0 L0.0,256.0 Z" fill="#56603d"/>
      <path d="M0.0,256.0 L103.9,301.0 L103.9,308.0 L0.0,263.0 Z" fill="#5a4a32"/>
      <path d="M0.0,263.0 L103.9,308.0 L103.9,315.0 L0.0,270.0 Z" fill="#3a2e1c"/>
      <path d="M103.9,295.0 L207.8,250.0 L207.8,256.0 L103.9,301.0 Z" fill="#495133"/>
      <path d="M103.9,301.0 L207.8,256.0 L207.8,263.0 L103.9,308.0 Z" fill="#51422d"/>
      <path d="M103.9,308.0 L207.8,263.0 L207.8,270.0 L103.9,315.0 Z" fill="#342919"/>
      <path d="M103.9,205.0 L207.8,250.0 L103.9,295.0 L0.0,250.0 Z" fill="#3a5a9a"/>
      <path d="M103.9,205.0 L207.8,250.0 L103.9,295.0 L0.0,250.0 Z" fill="url(#grassDots)" opacity="0.7"/>
      <rect x="81.9" y="228.0" width="44" height="22" fill="#5a4a32" stroke="#1a140d"/>
      <path d="M77.9,228.0 L129.9,228.0 L117.9,212.0 L89.9,212.0 Z" fill="#c89640" stroke="#1a140d"/>
      <line x1="103.9" y1="212.0" x2="103.9" y2="190.0" stroke="#1a140d" stroke-width="1.5"/>
      <path d="M103.9,190.0 L117.9,194.0 L103.9,198.0 Z" fill="#3a5a9a" stroke="#1a140d"/>
    </g>
    <g id="jing" data-name="荊州" data-terrain="water">
      <path d="M-103.9,213.0 L0.0,258.0 L0.0,261.6 L-103.9,216.6 Z" fill="#435442"/>
      <path d="M-103.9,216.6 L0.0,261.6 L0.0,265.8 L-103.9,220.8 Z" fill="#5a4a32"/>
      <path d="M-103.9,220.8 L0.0,265.8 L0.0,270.0 L-103.9,225.0 Z" fill="#3a2e1c"/>
      <path d="M0.0,258.0 L103.9,213.0 L103.9,216.6 L0.0,261.6 Z" fill="#384738"/>
      <path d="M0.0,261.6 L103.9,216.6 L103.9,220.8 L0.0,265.8 Z" fill="#51422d"/>
      <path d="M0.0,265.8 L103.9,220.8 L103.9,225.0 L0.0,270.0 Z" fill="#342919"/>
      <path d="M0.0,168.0 L103.9,213.0 L0.0,258.0 L-103.9,213.0 Z" fill="#7a9a78"/>
      <path d="M0.0,168.0 L103.9,213.0 L0.0,258.0 L-103.9,213.0 Z" fill="url(#grassDots)" opacity="0.7"/>
      <path d="M-35.0,218.0 q 8 -6 16 0 t 16 0 t 16 0" stroke="#5a8caa" stroke-width="2" fill="none" opacity="0.85"/>
      <path d="M-30.0,231.0 q 8 -5 16 0 t 16 0" stroke="#7aacc4" stroke-width="1.6" fill="none" opacity="0.7"/>
    </g>
    <g id="yi" data-name="益州" data-terrain="mtn">
      <path d="M-207.8,110.0 L-103.9,155.0 L-103.9,176.0 L-207.8,131.0 Z" fill="#4b4332"/>
      <path d="M-207.8,131.0 L-103.9,176.0 L-103.9,200.5 L-207.8,155.5 Z" fill="#5a4a32"/>
      <path d="M-207.8,155.5 L-103.9,200.5 L-103.9,225.0 L-207.8,180.0 Z" fill="#3a2e1c"/>
      <path d="M-103.9,155.0 L0.0,110.0 L0.0,131.0 L-103.9,176.0 Z" fill="#3f382a"/>
      <path d="M-103.9,176.0 L0.0,131.0 L0.0,155.5 L-103.9,200.5 Z" fill="#51422d"/>
      <path d="M-103.9,200.5 L0.0,155.5 L0.0,180.0 L-103.9,225.0 Z" fill="#342919"/>
      <path d="M-103.9,65.0 L0.0,110.0 L-103.9,155.0 L-207.8,110.0 Z" fill="#4a7c3a"/>
      <path d="M-103.9,50.0 L-75.9,122.0 L-131.9,122.0 Z" fill="#888070" stroke="#3a2e1c"/>
      <path d="M-103.9,50.0 L-89.9,86.0 L-103.9,116.0 Z" fill="#a89c84" stroke="none"/>
      <path d="M-133.9,77.0 L-115.9,124.0 L-153.9,124.0 Z" fill="#766a58" stroke="#3a2e1c"/>
      <rect x="-125.9" y="88.0" width="44" height="22" fill="#5a4a32" stroke="#1a140d"/>
      <path d="M-129.9,88.0 L-77.9,88.0 L-89.9,72.0 L-117.9,72.0 Z" fill="#c89640" stroke="#1a140d"/>
      <line x1="-103.9" y1="72.0" x2="-103.9" y2="50.0" stroke="#1a140d" stroke-width="1.5"/>
      <path d="M-103.9,50.0 L-89.9,54.0 L-103.9,58.0 Z" fill="#4a7c3a" stroke="#1a140d"/>
    </g>
    <g id="yang" data-name="揚州" data-terrain="water">
      <path d="M-103.9,303.0 L0.0,348.0 L0.0,351.6 L-103.9,306.6 Z" fill="#435442"/>
      <path d="M-103.9,306.6 L0.0,351.6 L0.0,355.8 L-103.9,310.8 Z" fill="#5a4a32"/>
      <path d="M-103.9,310.8 L0.0,355.8 L0.0,360.0 L-103.9,315.0 Z" fill="#3a2e1c"/>
      <path d="M0.0,348.0 L103.9,303.0 L103.9,306.6 L0.0,351.6 Z" fill="#384738"/>
      <path d="M0.0,351.6 L103.9,306.6 L103.9,310.8 L0.0,355.8 Z" fill="#51422d"/>
      <path d="M0.0,355.8 L103.9,310.8 L103.9,315.0 L0.0,360.0 Z" fill="#342919"/>
      <path d="M0.0,258.0 L103.9,303.0 L0.0,348.0 L-103.9,303.0 Z" fill="#b73229"/>
      <path d="M0.0,258.0 L103.9,303.0 L0.0,348.0 L-103.9,303.0 Z" fill="url(#grassDots)" opacity="0.7"/>
      <path d="M-35.0,308.0 q 8 -6 16 0 t 16 0 t 16 0" stroke="#5a8caa" stroke-width="2" fill="none" opacity="0.85"/>
      <path d="M-30.0,321.0 q 8 -5 16 0 t 16 0" stroke="#7aacc4" stroke-width="1.6" fill="none" opacity="0.7"/>
      <rect x="-22.0" y="281.0" width="44" height="22" fill="#5a4a32" stroke="#1a140d"/>
      <path d="M-26.0,281.0 L26.0,281.0 L14.0,265.0 L-14.0,265.0 Z" fill="#c89640" stroke="#1a140d"/>
      <line x1="0.0" y1="265.0" x2="0.0" y2="243.0" stroke="#1a140d" stroke-width="1.5"/>
      <path d="M0.0,243.0 L14.0,247.0 L0.0,251.0 Z" fill="#b73229" stroke="#1a140d"/>
    </g>
    <g id="jingnan" data-name="荊南" data-terrain="water">
      <path d="M-207.8,258.0 L-103.9,303.0 L-103.9,306.6 L-207.8,261.6 Z" fill="#435442"/>
      <path d="M-207.8,261.6 L-103.9,306.6 L-103.9,310.8 L-207.8,265.8 Z" fill="#5a4a32"/>
      <path d="M-207.8,265.8 L-103.9,310.8 L-103.9,315.0 L-207.8,270.0 Z" fill="#3a2e1c"/>
      <path d="M-103.9,303.0 L0.0,258.0 L0.0,261.6 L-103.9,306.6 Z" fill="#384738"/>
      <path d="M-103.9,306.6 L0.0,261.6 L0.0,265.8 L-103.9,310.8 Z" fill="#51422d"/>
      <path d="M-103.9,310.8 L0.0,265.8 L0.0,270.0 L-103.9,315.0 Z" fill="#342919"/>
      <path d="M-103.9,213.0 L0.0,258.0 L-103.9,303.0 L-207.8,258.0 Z" fill="#7a9a78"/>
      <path d="M-103.9,213.0 L0.0,258.0 L-103.9,303.0 L-207.8,258.0 Z" fill="url(#grassDots)" opacity="0.7"/>
      <path d="M-138.9,263.0 q 8 -6 16 0 t 16 0 t 16 0" stroke="#5a8caa" stroke-width="2" fill="none" opacity="0.85"/>
      <path d="M-133.9,276.0 q 8 -5 16 0 t 16 0" stroke="#7aacc4" stroke-width="1.6" fill="none" opacity="0.7"/>
    </g>
    <g id="yinan" data-name="益州南" data-terrain="plat">
      <path d="M-311.8,175.0 L-207.8,220.0 L-207.8,235.0 L-311.8,190.0 Z" fill="#544b37"/>
      <path d="M-311.8,190.0 L-207.8,235.0 L-207.8,252.5 L-311.8,207.5 Z" fill="#5a4a32"/>
      <path d="M-311.8,207.5 L-207.8,252.5 L-207.8,270.0 L-311.8,225.0 Z" fill="#3a2e1c"/>
      <path d="M-207.8,220.0 L-103.9,175.0 L-103.9,190.0 L-207.8,235.0 Z" fill="#473f2e"/>
      <path d="M-207.8,235.0 L-103.9,190.0 L-103.9,207.5 L-207.8,252.5 Z" fill="#51422d"/>
      <path d="M-207.8,252.5 L-103.9,207.5 L-103.9,225.0 L-207.8,270.0 Z" fill="#342919"/>
      <path d="M-207.8,130.0 L-103.9,175.0 L-207.8,220.0 L-311.8,175.0 Z" fill="#9a8a64"/>
      <path d="M-207.8,140.0 L-179.8,187.0 L-235.8,187.0 Z" fill="#888070" stroke="#3a2e1c"/>
      <path d="M-207.8,140.0 L-193.8,161.0 L-207.8,181.0 Z" fill="#a89c84" stroke="none"/>
    </g>
    <g id="jiao" data-name="交州" data-terrain="hill">
      <path d="M-207.8,325.0 L-103.9,370.0 L-103.9,380.5 L-207.8,335.5 Z" fill="#5c5340"/>
      <path d="M-207.8,335.5 L-103.9,380.5 L-103.9,392.8 L-207.8,347.8 Z" fill="#5a4a32"/>
      <path d="M-207.8,347.8 L-103.9,392.8 L-103.9,405.0 L-207.8,360.0 Z" fill="#3a2e1c"/>
      <path d="M-103.9,370.0 L0.0,325.0 L0.0,335.5 L-103.9,380.5 Z" fill="#4e4636"/>
      <path d="M-103.9,380.5 L0.0,335.5 L0.0,347.8 L-103.9,392.8 Z" fill="#51422d"/>
      <path d="M-103.9,392.8 L0.0,347.8 L0.0,360.0 L-103.9,405.0 Z" fill="#342919"/>
      <path d="M-103.9,280.0 L0.0,325.0 L-103.9,370.0 L-207.8,325.0 Z" fill="#a89876"/>
      <path d="M-103.9,280.0 L0.0,325.0 L-103.9,370.0 L-207.8,325.0 Z" fill="url(#grassDots)" opacity="0.7"/>
    </g>
  </g>
  <g id="rivers" stroke="#5a8caa" stroke-width="6" fill="none" stroke-linecap="round" stroke-linejoin="round" opacity="0.85">
    <path d="M-103.9,20.0 L0.0,100.0 L103.9,145.0 L207.8,205.0 L311.8,250.0"/>
    <path d="M-103.9,110.0 L0.0,213.0 L0.0,303.0"/>
  </g>
  <g id="labels" font-family="Noto Serif TC, serif" font-weight="900" text-anchor="middle" fill="#ffe070" stroke="#1a140d" stroke-width="3" paint-order="stroke">
    <text x="-103.9" y="80.0" font-size="22">涼州</text>
    <text x="0.0" y="160.0" font-size="22">雍州</text>
    <text x="103.9" y="205.0" font-size="22">司隸</text>
    <text x="207.8" y="145.0" font-size="22">并州</text>
    <text x="311.8" y="220.0" font-size="22">冀州</text>
    <text x="415.7" y="265.0" font-size="22">幽州</text>
    <text x="311.8" y="310.0" font-size="22">青州</text>
    <text x="207.8" y="265.0" font-size="22">兗州</text>
    <text x="207.8" y="355.0" font-size="22">徐州</text>
    <text x="103.9" y="310.0" font-size="22">豫州</text>
    <text x="-103.9" y="170.0" font-size="22">益州</text>
    <text x="0.0" y="273.0" font-size="22">荊州</text>
    <text x="0.0" y="363.0" font-size="22">揚州</text>
    <text x="-207.8" y="235.0" font-size="22">益州南</text>
    <text x="-103.9" y="318.0" font-size="22">荊南</text>
    <text x="-103.9" y="385.0" font-size="22">交州</text>
  </g>
</svg>
